<?xml version="1.0" encoding="utf-8"?>
<!-- Generator: Adobe Illustrator 16.0.0, SVG Export Plug-In . SVG Version: 6.00 Build 0)  -->
<!DOCTYPE svg PUBLIC "-//W3C//DTD SVG 1.1//EN" "http://www.w3.org/Graphics/SVG/1.1/DTD/svg11.dtd">
<svg version="1.1" xmlns="http://www.w3.org/2000/svg" xmlns:xlink="http://www.w3.org/1999/xlink" x="0px" y="0px" width="635px"
	 height="307px" viewBox="0 0 635 307" enable-background="new 0 0 635 307" xml:space="preserve">

<g id="menu">
    <path id="black_shadow" opacity="0.9" fill="#101112" d="M359.99,136.332l-13.741-15.559c0,0-0.501,3.192-1.523,7.667
        c-1.196-0.565-2.457-1.043-3.78-1.424c-0.469-1.625-1.098-3.145-1.842-4.576c4.197-1.116,7.145-1.667,7.145-1.667l-15.184-14.689
        l-14.873-94.667l-15.873,94.658l-15.521,14.466c0,0,3.669,0.666,8.662,1.987c-0.726,1.409-1.34,2.903-1.799,4.498
        c-1.832,0.528-3.536,1.252-5.12,2.13c-1.171-4.968-1.743-8.615-1.743-8.615L271.057,136.1L11.333,151.93l259.732,14.832
        l13.688,15.144c0,0,0.564-3.24,1.714-7.766c1.607,0.898,3.341,1.635,5.205,2.172c0.401,1.391,0.913,2.71,1.518,3.96
        c-4.873,1.22-8.427,1.816-8.427,1.816l15.601,14.748l15.873,94.658l14.873-94.667l15.184-14.689c0,0-2.873-0.536-6.986-1.625
        c0.66-1.325,1.221-2.726,1.649-4.213c1.313-0.379,2.564-0.854,3.752-1.415c1.062,4.253,1.585,7.252,1.585,7.252l13.688-15.144
        l259.731-14.832L359.99,136.332z M311.548,146.906l0.527-0.525c1.346-1.301,2.76-2.486,4.229-3.546
        c1.665,1.2,3.258,2.561,4.763,4.068l0.497,0.498c1.312,1.355,2.507,2.779,3.574,4.258c-1.199,1.665-2.561,3.258-4.069,4.763
        l-0.509,0.508c-1.351,1.308-2.771,2.499-4.246,3.563c-1.664-1.2-3.258-2.561-4.763-4.069l-0.537-0.538
        c-1.296-1.342-2.478-2.752-3.533-4.216C308.679,150.004,310.04,148.411,311.548,146.906z M328.854,164.2l1.504-1.509
        c0.296,1.218,0.5,2.427,0.606,3.617c-1.209-0.108-2.435-0.313-3.666-0.613C327.825,165.209,328.344,164.711,328.854,164.2z
         M327.336,137.615c1.215-0.295,2.425-0.497,3.621-0.604c-0.107,1.205-0.314,2.43-0.616,3.664
        c-0.486-0.527-0.985-1.046-1.497-1.557L327.336,137.615z M309.195,107.563l6.708-40l6.271,39.917l0.439,2.797
        c-1.996-0.418-4.102-0.643-6.308-0.643c-2.708,0-5.261,0.345-7.645,0.969l0.03-0.028L309.195,107.563z M303.763,139.128
        l-1.504,1.508c-0.296-1.218-0.5-2.428-0.606-3.618c1.21,0.108,2.436,0.313,3.667,0.613
        C304.792,138.117,304.273,138.616,303.763,139.128z M305.28,165.712c-1.215,0.294-2.425,0.496-3.62,0.603
        c0.107-1.205,0.314-2.429,0.616-3.663c0.486,0.527,0.985,1.046,1.496,1.557L305.28,165.712z M164.073,151.637l107.531-6.554
        l3.425-0.208c-0.487,2.137-0.748,4.406-0.748,6.792c0,2.204,0.225,4.307,0.641,6.3l-3.344-0.191L164.073,151.637z
         M315.948,235.347l-6.708-40l-0.434-2.59c2.345,0.601,4.851,0.933,7.506,0.933c2.196,0,4.292-0.224,6.28-0.638l-0.374,2.377
        L315.948,235.347z M328.628,177.115c0.001,0,0.002,0,0.004,0l0,0C328.631,177.116,328.629,177.116,328.628,177.115z
         M359.468,158.008l-1.801,0.103c0.438-2.038,0.668-4.193,0.668-6.452s-0.231-4.415-0.668-6.452l1.775,0.108l107.531,6.554
        L359.468,158.008z"/>
</g>
</svg>
