<?xml version="1.0" encoding="utf-8"?>
<!-- Generator: Adobe Illustrator 16.0.0, SVG Export Plug-In . SVG Version: 6.00 Build 0)  -->
<!DOCTYPE svg PUBLIC "-//W3C//DTD SVG 1.1//EN" "http://www.w3.org/Graphics/SVG/1.1/DTD/svg11.dtd">
<svg version="1.1" xmlns="http://www.w3.org/2000/svg" xmlns:xlink="http://www.w3.org/1999/xlink" x="0px" y="0px" width="654px"
	 height="244px" viewBox="0 0 654 244" enable-background="new 0 0 654 244" xml:space="preserve">
<g id="item_x5F_box_x5F_bg">
	<polygon fill="#FEEB00" points="648.519,36.432 648.519,5.935 618.022,5.935 618.022,10.935 36.977,10.935 36.977,5.935 
		6.48,5.935 6.48,36.431 11.48,36.431 11.48,204.606 6.48,204.606 6.48,235.104 36.978,235.104 36.978,230.104 618.022,230.104 
		618.022,235.104 648.519,235.104 648.519,204.606 643.519,204.606 643.519,36.432 	"/>
</g>
<g id="item_x5F_box_x5F_block">
	<polygon fill="#EE1C4E" points="29.158,14.704 22.709,14.704 22.709,21.381 22.709,22.162 22.709,25.662 22.709,26.484 
		22.709,28.612 26.209,28.612 26.209,26.256 26.209,25.662 26.209,22.162 26.209,21.714 26.209,18.204 29.158,18.204 	"/>
	<polygon fill="#EE1C4E" points="14.45,29.412 13.5,29.412 13.5,12.954 29.959,12.954 29.959,13.527 29.959,14.704 29.959,18.204 
		29.959,18.631 29.959,21.362 33.459,21.362 33.459,18.402 33.459,18.204 33.459,14.704 33.459,13.86 33.459,9.454 10,9.454 
		10,32.912 14.45,32.912 	"/>
	<polygon fill="#EE1C4E" points="26.209,29.412 22.709,29.412 21.908,29.412 19.55,29.412 19.55,32.912 22.242,32.912 
		22.709,32.912 26.209,32.912 26.783,32.912 33.459,32.912 33.459,26.462 29.959,26.462 29.959,29.412 27.013,29.412 	"/>
	<path fill="#EE1C4E" d="M33.459,22.162h-3.5h-0.801h-2.15v3.5h2.484h0.467h3.5h0.574H42.3c-5.687,9.969-6.122,10.4-16.091,16.09
		v-8.04h-3.5v14.07l4.371-2.497c11.836-6.75,12.011-6.926,18.768-18.779l2.48-4.344H34.263H33.459z"/>
	<polygon fill="#EE1C4E" points="15.25,33.809 15.25,32.912 15.25,29.412 15.25,28.704 15.25,22.162 21.908,22.162 21.908,25.662 
		18.75,25.662 18.75,29.037 18.75,29.412 18.75,32.912 18.75,33.579 18.75,207.459 18.75,208.125 18.75,211.625 18.75,212 
		18.75,215.375 21.908,215.375 21.908,218.875 15.25,218.875 15.25,212.334 15.25,211.625 15.25,208.125 15.25,207.229 	"/>
	<polygon fill="#EE1C4E" points="625.842,14.704 632.291,14.704 632.291,21.381 632.291,22.162 632.291,25.662 632.291,26.484 
		632.291,28.612 628.791,28.612 628.791,26.256 628.791,25.662 628.791,22.162 628.791,21.714 628.791,18.204 625.842,18.204 	"/>
	<polygon fill="#EE1C4E" points="640.55,29.412 641.5,29.412 641.5,12.954 625.041,12.954 625.041,13.527 625.041,14.704 
		625.041,18.204 625.041,18.631 625.041,21.362 621.541,21.362 621.541,18.402 621.541,18.204 621.541,14.704 621.541,13.86 
		621.541,9.454 645,9.454 645,32.912 640.55,32.912 	"/>
	<polygon fill="#EE1C4E" points="628.791,29.412 632.291,29.412 633.092,29.412 635.45,29.412 635.45,32.912 632.758,32.912 
		632.291,32.912 628.791,32.912 628.217,32.912 621.541,32.912 621.541,26.462 625.041,26.462 625.041,29.412 627.987,29.412 	"/>
	<rect x="34.258" y="14.704" fill="#EE1C4E" width="586.484" height="3.5"/>
	<path fill="#EE1C4E" d="M621.541,22.162h3.5h0.801h2.15v3.5h-2.484h-0.467h-3.5h-0.574H612.7c5.687,9.969,6.122,10.4,16.091,16.09
		v-8.04h3.5v14.07l-4.371-2.497c-11.836-6.75-12.011-6.926-18.768-18.779l-2.48-4.344h14.065H621.541z"/>
	<polygon fill="#EE1C4E" points="639.75,33.809 639.75,32.912 639.75,29.412 639.75,28.704 639.75,22.162 633.092,22.162 
		633.092,25.662 636.25,25.662 636.25,29.037 636.25,29.412 636.25,32.912 636.25,33.579 636.25,207.459 636.25,208.125 
		636.25,211.625 636.25,212 636.25,215.375 633.092,215.375 633.092,218.875 639.75,218.875 639.75,212.334 639.75,211.625 
		639.75,208.125 639.75,207.229 	"/>
	<polygon fill="#EE1C4E" points="29.158,226.334 22.709,226.334 22.709,219.656 22.709,218.875 22.709,215.375 22.709,214.553 
		22.709,212.426 26.209,212.426 26.209,214.781 26.209,215.375 26.209,218.875 26.209,219.323 26.209,222.834 29.158,222.834 	"/>
	<polygon fill="#EE1C4E" points="14.45,211.625 13.5,211.625 13.5,228.084 29.959,228.084 29.959,227.511 29.959,226.334 
		29.959,222.834 29.959,222.406 29.959,219.676 33.459,219.676 33.459,222.636 33.459,222.834 33.459,226.334 33.459,227.178 
		33.459,231.584 10,231.584 10,208.125 14.45,208.125 	"/>
	<polygon fill="#EE1C4E" points="26.209,211.625 22.709,211.625 21.908,211.625 19.55,211.625 19.55,208.125 22.242,208.125 
		22.709,208.125 26.209,208.125 26.783,208.125 33.459,208.125 33.459,214.576 29.959,214.576 29.959,211.625 27.013,211.625 	"/>
	<polygon fill="#EE1C4E" points="625.842,226.334 632.291,226.334 632.291,219.656 632.291,218.875 632.291,215.375 
		632.291,214.553 632.291,212.426 628.791,212.426 628.791,214.781 628.791,215.375 628.791,218.875 628.791,219.323 
		628.791,222.834 625.842,222.834 	"/>
	<polygon fill="#EE1C4E" points="640.55,211.625 641.5,211.625 641.5,228.084 625.041,228.084 625.041,227.511 625.041,226.334 
		625.041,222.834 625.041,222.406 625.041,219.676 621.541,219.676 621.541,222.636 621.541,222.834 621.541,226.334 
		621.541,227.178 621.541,231.584 645,231.584 645,208.125 640.55,208.125 	"/>
	<polygon fill="#EE1C4E" points="628.791,211.625 632.291,211.625 633.092,211.625 635.45,211.625 635.45,208.125 632.758,208.125 
		632.291,208.125 628.791,208.125 628.217,208.125 621.541,208.125 621.541,214.576 625.041,214.576 625.041,211.625 
		627.987,211.625 	"/>
	<rect x="34.258" y="222.834" fill="#EE1C4E" width="586.484" height="3.5"/>
	<path fill="#EE1C4E" d="M621.541,218.875h3.5h0.801h2.15v-3.5h-2.484h-0.467h-3.5h-0.574H612.7
		c5.687-9.968,6.122-10.4,16.091-16.09v8.041h3.5v-14.07l-4.371,2.496c-11.836,6.75-12.011,6.926-18.768,18.78l-2.48,4.343h14.065
		H621.541z"/>
	<path fill="#EE1C4E" d="M33.459,218.875h-3.5h-0.801h-2.15v-3.5h2.484h0.467h3.5h0.574H42.3c-5.687-9.968-6.122-10.4-16.091-16.09
		v8.041h-3.5v-14.07l4.371,2.496c11.836,6.75,12.011,6.926,18.768,18.78l2.48,4.343H34.263H33.459z"/>
</g>
</svg>
