<?xml version="1.0" encoding="utf-8"?>
<!-- Generator: Adobe Illustrator 16.0.0, SVG Export Plug-In . SVG Version: 6.00 Build 0)  -->
<!DOCTYPE svg PUBLIC "-//W3C//DTD SVG 1.1//EN" "http://www.w3.org/Graphics/SVG/1.1/DTD/svg11.dtd">
<svg version="1.1" xmlns="http://www.w3.org/2000/svg" xmlns:xlink="http://www.w3.org/1999/xlink" x="0px" y="0px"
	 width="1257.065px" height="67.353px" viewBox="0 0 1257.065 67.353" enable-background="new 0 0 1257.065 67.353"
	 xml:space="preserve">
<g id="menu">
	<polygon fill="#FF0000" points="1257.065,33.625 1231.841,14 1227.227,17.64 1210.315,0 46.75,0 29.839,17.64 25.225,14 0,33.625 
		0.065,33.676 0,33.728 25.225,53.352 29.839,49.713 46.75,67.353 1210.315,67.353 1227.227,49.713 1231.841,53.352 
		1257.065,33.728 1257,33.676 	"/>
	<g>
		<polygon fill="#70FF00" points="42.301,42.687 38.058,39.202 36.024,40.771 41.413,45.187 48.649,45.187 48.649,22.062 
			41.413,22.062 29.93,31.388 31.909,33 42.301,24.562 46.149,24.562 46.149,42.687 		"/>
		<polygon fill="#70FF00" points="34.482,36.271 24.783,28.422 27.8,25.515 25.809,23.961 21.014,28.577 32.445,37.836 		"/>
		<polygon fill="#70FF00" points="48.756,5.375 1207.52,5.375 1231.494,28.422 1227.758,31.468 1229.737,33.08 1235.262,28.577 
			1208.527,2.875 47.75,2.875 28.651,21.227 30.644,22.781 		"/>
		<polygon fill="#70FF00" points="1213.975,24.562 1218.219,28.047 1220.252,26.479 1214.863,22.062 1207.627,22.062 
			1207.627,45.187 1214.863,45.187 1226.347,35.861 1224.367,34.25 1213.975,42.687 1210.127,42.687 1210.127,24.562 		"/>
		<polygon fill="#70FF00" points="1207.52,61.875 48.756,61.875 24.783,38.827 28.519,35.781 26.539,34.169 21.014,38.672 
			47.75,64.375 1208.527,64.375 1227.625,46.022 1225.633,44.468 		"/>
		<polygon fill="#70FF00" points="1221.794,30.979 1231.494,38.827 1228.477,41.734 1230.468,43.288 1235.262,38.672 
			1223.831,29.413 		"/>
		<path fill="#70FF00" d="M37.964,29.252l5.593,4.372l-12.727,9.828l-1.821-1.75l10.48-8.078l-3.519-2.756L37.964,29.252z
			 M35.212,27.121 M32.492,28.177l-8.052-6.28L9.391,33.625l15.05,11.728l1.179-0.962l1.821,1.75l-3,2.382L5.323,33.625
			L24.44,18.727l10.047,7.835L32.492,28.177z"/>
		<path fill="#70FF00" d="M1218.313,37.997l-5.594-4.372l12.727-9.828l1.821,1.75l-10.48,8.078l3.519,2.756L1218.313,37.997z
			 M1221.064,40.128 M1223.784,39.072l8.052,6.28l15.05-11.728l-15.05-11.728l-1.179,0.962l-1.821-1.75l3-2.382l19.117,14.897
			l-19.117,14.897l-10.047-7.835L1223.784,39.072z"/>
	</g>
</g>
</svg>
