<?xml version="1.0" encoding="utf-8"?>
<!-- Generator: Adobe Illustrator 16.0.0, SVG Export Plug-In . SVG Version: 6.00 Build 0)  -->
<!DOCTYPE svg PUBLIC "-//W3C//DTD SVG 1.1//EN" "http://www.w3.org/Graphics/SVG/1.1/DTD/svg11.dtd">
<svg version="1.1" xmlns="http://www.w3.org/2000/svg" xmlns:xlink="http://www.w3.org/1999/xlink" x="0px" y="0px" width="500px"
	 height="500px" viewBox="0 0 500 500" enable-background="new 0 0 500 500" xml:space="preserve">


<g id="menu">
	<polygon fill="#FF0000" points="879.125,-199.812 853.9,-219.437 849.286,-215.797 832.375,-233.437 -331.19,-233.437 
		-348.102,-215.797 -352.716,-219.437 -377.94,-199.812 -377.875,-199.761 -377.94,-199.709 -352.716,-180.085 -348.102,-183.724 
		-331.19,-166.084 832.375,-166.084 849.286,-183.724 853.9,-180.085 879.125,-199.709 879.06,-199.761 	"/>
	<g>
		<polygon fill="#70FF00" points="-335.639,-190.75 -339.883,-194.235 -341.917,-192.667 -336.528,-188.25 -329.292,-188.25 
			-329.292,-211.375 -336.528,-211.375 -348.011,-202.049 -346.031,-200.438 -335.639,-208.875 -331.792,-208.875 -331.792,-190.75 
					"/>
		<polygon fill="#70FF00" points="-343.458,-197.167 -353.158,-205.015 -350.141,-207.922 -352.132,-209.476 -356.926,-204.86 
			-345.495,-195.601 		"/>
		<polygon fill="#70FF00" points="-329.184,-228.063 829.579,-228.063 853.554,-205.015 849.817,-201.969 851.797,-200.357 
			857.321,-204.86 830.587,-230.563 -330.191,-230.563 -349.289,-212.21 -347.297,-210.656 		"/>
		<polygon fill="#70FF00" points="836.034,-208.875 840.278,-205.39 842.312,-206.958 836.923,-211.375 829.687,-211.375 
			829.687,-188.25 836.923,-188.25 848.406,-197.576 846.427,-199.188 836.034,-190.75 832.187,-190.75 832.187,-208.875 		"/>
		<polygon fill="#70FF00" points="829.579,-171.563 -329.184,-171.563 -353.158,-194.61 -349.422,-197.656 -351.401,-199.268 
			-356.926,-194.765 -330.191,-169.063 830.587,-169.063 849.685,-187.415 847.692,-188.969 		"/>
		<polygon fill="#70FF00" points="843.854,-202.458 853.554,-194.61 850.536,-191.703 852.527,-190.149 857.321,-194.765 
			845.891,-204.024 		"/>
		<path fill="#70FF00" d="M-339.976-204.185l5.593,4.372l-12.727,9.828l-1.821-1.75l10.48-8.078l-3.519-2.756L-339.976-204.185z
			 M-342.729-206.316 M-345.448-205.26l-8.052-6.28l-15.05,11.728l15.05,11.728l1.179-0.962l1.821,1.75l-3,2.382l-19.117-14.897
			l19.117-14.897l10.047,7.835L-345.448-205.26z"/>
		<path fill="#70FF00" d="M840.372-195.44l-5.594-4.372l12.727-9.828l1.821,1.75l-10.48,8.078l3.519,2.756L840.372-195.44z
			 M843.124-193.309 M845.844-194.365l8.052,6.28l15.05-11.728l-15.05-11.728l-1.179,0.962l-1.821-1.75l3-2.382l19.117,14.897
			l-19.117,14.897l-10.047-7.835L845.844-194.365z"/>
	</g>
</g>
<g id="progress">
	<path id="mask_2_" d="M397.667,467.666h-290.99l46.656,25.5H351.75L397.667,467.666L397.667,467.666z"/>
	<path fill="#FFFFFF" d="M121.833,471.984L153.904,489H351l31.938-17.016H121.833z M350.251,486h-195.6l-20.762-11.016h237.038
		L350.251,486z"/>
	<polygon id="progress_1_" fill="#70FF00" points="143.667,476.666 158.167,484.166 347.279,484.166 361.779,476.666 	"/>
</g>
</svg>
