<?xml version="1.0" encoding="utf-8"?>
<!-- Generator: Adobe Illustrator 16.0.0, SVG Export Plug-In . SVG Version: 6.00 Build 0)  -->
<!DOCTYPE svg PUBLIC "-//W3C//DTD SVG 1.1//EN" "http://www.w3.org/Graphics/SVG/1.1/DTD/svg11.dtd">
<svg version="1.1" id="select" xmlns="http://www.w3.org/2000/svg" xmlns:xlink="http://www.w3.org/1999/xlink" x="0px" y="0px"
	 width="41.454px" height="41.245px" viewBox="0 0 41.454 41.245" enable-background="new 0 0 41.454 41.245" xml:space="preserve">
<g id="final">
	<polygon fill="#858A89" points="25.434,18.119 27.305,20.209 28.625,18.236 27.295,16.75 25.377,14.607 25.024,14.212 
		24.932,14.109 20.674,9.354 16.674,13.818 16.697,13.825 18.172,15.592 20.674,12.801 23.883,16.387 	"/>
	<path fill="#858A89" d="M22.341,21.077c0.616-0.519,1.472-1.287,2.407-2.243l-1.547-1.729c-0.534,0.553-1.037,1.033-1.485,1.445
		c0.002,0.002,0.003,0.003,0.005,0.005l-3.324,3.158c-0.001-0.001-0.003-0.002-0.004-0.003l-2.684,2.958l-1.766-2.651l-1.586,1.768
		l3.072,4.614l5.225-5.759L22.341,21.077z"/>
	<polygon fill="#858A89" points="30.471,23.747 31.613,25.022 20.668,37.722 9.723,25.022 11.708,22.808 11.708,22.809 
		13.292,21.037 13.292,21.038 15.067,19.059 13.567,17.3 13.567,17.286 6.661,24.993 20.668,41.245 34.674,24.993 31.792,21.774 	
		"/>
	<path fill="#858A89" d="M17.52,16.374l-0.004,0.006c-0.498-0.548-0.998-1.138-1.484-1.773l-0.011-0.02
		c-0.341-0.444-0.667-0.913-0.982-1.394c0-0.002,0.001-0.002,0.001-0.004c-0.29-0.442-0.562-0.9-0.815-1.368
		c-0.109-0.2-0.213-0.402-0.313-0.607c-0.071-0.145-0.146-0.287-0.212-0.434c-0.163-0.363-0.309-0.731-0.439-1.104
		c-0.382-1.084-0.616-2.204-0.616-3.339c0-1.021,0.957-2.102,2.57-2.889h0.018c1.044-0.509,2.358-0.896,3.875-1.061
		c0.027-0.003,0.055-0.004,0.082-0.007c0.491-0.05,1-0.079,1.531-0.08c0.002,0,0.004,0,0.007,0c0.541,0,1.06,0.029,1.56,0.082
		c0.016,0.001,0.032,0.002,0.047,0.004c1.522,0.164,2.839,0.552,3.887,1.062h0.025c1.613,0.787,2.57,1.867,2.57,2.889
		c0,1.025-0.19,2.094-0.56,3.195h-0.011c-0.474,1.406-1.204,2.752-2.045,3.983l1.578,1.763c0.311-0.436,0.61-0.888,0.896-1.353
		l0.012,0.007c1.613-2.616,2.431-5.172,2.431-7.596c0-2.296-1.911-4.265-4.83-5.375c-0.022-0.008-0.045-0.017-0.068-0.024
		c-0.366-0.137-0.747-0.261-1.143-0.37c-0.031-0.009-0.062-0.019-0.093-0.026c-0.41-0.11-0.833-0.205-1.271-0.282
		c-0.057-0.01-0.116-0.017-0.173-0.026c-0.366-0.061-0.739-0.108-1.121-0.145c-0.11-0.011-0.22-0.022-0.332-0.03
		C21.641,0.023,21.191,0,20.73,0c-0.001,0-0.002,0-0.003,0c0,0-0.001,0-0.002,0c-0.004,0-0.008,0.001-0.012,0.001
		c-0.453,0-0.895,0.022-1.331,0.056c-0.125,0.01-0.248,0.021-0.371,0.034c-0.354,0.034-0.701,0.079-1.042,0.134
		c-0.083,0.014-0.169,0.024-0.252,0.039c-0.417,0.074-0.82,0.165-1.211,0.269c-0.072,0.02-0.141,0.041-0.212,0.062
		c-0.339,0.096-0.667,0.202-0.984,0.318c-0.064,0.023-0.129,0.046-0.192,0.07c-0.755,0.292-1.438,0.642-2.04,1.039
		c-0.021,0.014-0.041,0.027-0.061,0.041c-1.663,1.12-2.672,2.61-2.672,4.274c0,2.666,0.996,5.199,2.341,7.428
		c0.061,0.102,0.121,0.204,0.183,0.306c0.016,0.025,0.031,0.053,0.047,0.078c0-0.001,0.001-0.002,0.002-0.003
		c0.482,0.771,1.003,1.503,1.542,2.185l0.004,0.018c0.496,0.629,1,1.215,1.496,1.754l0.003-0.003
		c0.773,0.84,1.508,1.547,2.146,2.127c0.474-0.426,1.095-0.981,1.731-1.546C19.174,18.079,18.366,17.303,17.52,16.374z"/>
	<path fill="#858A89" d="M30.995,20.84L41.454,5.215l-8.988-0.012v2.3l4.685,0.007L30.334,17.69c0,0.001,0.002,0.001,0.002,0.002
		l-0.519,0.77l-0.407,0.608l-0.002-0.002l-1.325,1.968l0.007,0.008l-2.43,3.629l-2.537-2.78c-0.817,0.686-1.44,1.178-1.793,1.446
		l4.609,5.053l2.827-4.224h-0.001l2.23-3.326L30.995,20.84z"/>
	<polygon fill="#858A89" points="8.944,7.472 8.944,5.172 0,5.16 9.761,19.825 11.349,18.06 4.297,7.465 	"/>
</g>
</svg>
